<svg width="40" height="40" viewBox="0 0 40 40" fill="none" xmlns="http://www.w3.org/2000/svg">
<path d="M21.6666 23.3333H14.696C13.5394 23.3333 12.9611 23.3333 12.4692 23.4603C11.2552 23.7738 10.2584 24.6383 9.77644 25.7957C9.58115 26.2647 9.49936 26.8372 9.3358 27.9822V27.9822C9.09939 29.6371 8.98118 30.4645 9.10042 31.109C9.3972 32.7131 10.6384 33.9763 12.2371 34.3012C12.8794 34.4317 13.7088 34.3281 15.3676 34.1207L16.2969 34.0045C18.0567 33.7846 18.9366 33.6746 19.6174 33.2942C20.4121 32.8503 21.0316 32.1485 21.3736 31.3048C21.6666 30.5821 21.6666 29.6954 21.6666 27.9219V10.0552C21.6666 8.43683 21.6666 7.62766 22.1405 7.06817C22.6145 6.50868 23.4127 6.37565 25.009 6.1096L31.3657 5.05015C31.5015 5.02751 31.5694 5.01619 31.6061 5.05588C31.6427 5.09557 31.626 5.16236 31.5926 5.29593L30.0306 11.5439C30.0157 11.6036 30.0082 11.6334 29.9873 11.6534C29.9663 11.6734 29.9361 11.6794 29.8758 11.6915L21.6666 13.3333" stroke="white"/>
</svg>
