<svg width="30" height="30" viewBox="0 0 30 30" fill="none" xmlns="http://www.w3.org/2000/svg">
<g clip-path="url(#clip0_103_60)">
<path d="M14.9993 0.0494385C6.74054 0.0494385 0.0451813 6.74462 0.0451813 15.0034C0.0451813 23.2625 6.74054 29.9571 14.9993 29.9571C23.2589 29.9571 29.9536 23.2625 29.9536 15.0034C29.9536 6.74515 23.2589 0.0501528 14.9991 0.0501528L14.9993 0.0494385ZM21.8571 21.6173C21.5893 22.0566 21.0143 22.1959 20.575 21.9262C17.0639 19.7816 12.6439 19.2959 7.43857 20.4852C6.93697 20.5994 6.43697 20.2852 6.32268 19.7834C6.20786 19.2816 6.5209 18.7816 7.02375 18.6673C12.7202 17.3653 17.6064 17.9262 21.5482 20.3352C21.9875 20.6048 22.1268 21.178 21.8571 21.6173ZM23.6875 17.545C23.35 18.0941 22.6321 18.2673 22.0839 17.9298C18.0643 15.4585 11.937 14.743 7.1825 16.1862C6.5659 16.3725 5.91465 16.025 5.7275 15.4094C5.54179 14.7928 5.88947 14.1428 6.505 13.9553C11.9359 12.3075 18.6875 13.1057 23.3036 15.9423C23.8518 16.2798 24.025 16.9975 23.6875 17.545ZM23.8446 13.305C19.025 10.4423 11.0732 10.1791 6.47161 11.5757C5.73268 11.7998 4.95125 11.3827 4.72732 10.6437C4.5034 9.90444 4.92018 9.12355 5.65965 8.8989C10.942 7.29533 19.7232 7.60515 25.2721 10.8993C25.9382 11.2937 26.1561 12.1521 25.7614 12.8159C25.3686 13.4805 24.5079 13.6996 23.8454 13.305H23.8446Z" fill="black"/>
</g>
<defs>
<clipPath id="clip0_103_60">
<rect width="30" height="30" fill="white"/>
</clipPath>
</defs>
</svg>
